<?xml version="1.0" encoding="UTF-8"?>
<svg id="Layer_1" data-name="Layer 1" xmlns="http://www.w3.org/2000/svg" xmlns:xlink="http://www.w3.org/1999/xlink" viewBox="0 0 1080 1080">
  <defs>
    <style>
      .cls-1 {
        fill: url(#linear-gradient);
      }
    </style>
    <linearGradient id="linear-gradient" x1="40.94" y1="539.5" x2="1039.06" y2="539.5" gradientUnits="userSpaceOnUse">
      <stop offset="0" stop-color="#ffbf5f"/>
      <stop offset="1" stop-color="#ffd86c"/>
    </linearGradient>
  </defs>
  <path class="cls-1" d="M1036.06,594.22c-37.4,405.63-545.52,588.94-842.34,307.43C-110.91,612.74,67.93,80.11,483.64,41.8h322.89c119.2,22.47,207.06,110.35,229.52,229.52-7.05,103.99,9.45,220.4,0,322.89Z"/>
  <g>
    <circle cx="652.16" cy="542.1" r="16.76"/>
    <circle cx="558" cy="542.1" r="16.76"/>
    <path d="M649.65,221.42l-47.9,187.36-47.95-187.36h-125.95v318.08h.13v205.55c-24.98-1.94-55.39-9.29-64.16-19.09-15.31-17.03-22.15-35-23.39-53.62-5.63-82,95.89-176.44,49.06-256.03-22.19-37.67-95.89-53.36-89.83-8.51,2.28,17.16,25.07,24.68,30.49,37.71,15.82,37.63-34.4,105.14-48.68,144.53-1.42,3.96-2.8,7.87-4.09,11.74-10.02,29.84-16.08,58.48-15.61,84.58,1.08,64.5,41.97,113.35,162.03,125.01,1.38.13,2.75.26,4.17.3v45.93h80.07v-195.61l134.64,195.61h132.92V221.42h-125.95ZM695.41,765.65l-187.36-226.15v-198.28l52.72,162.98h81.92l52.72-162.98v424.43Z"/>
  </g>
</svg>